<svg xmlns="http://www.w3.org/2000/svg" width="48" height="48" viewBox="0 0 48 48">
    <g fill="none" fill-rule="nonzero">
        <path fill="#FFF" fill-opacity="0" d="M0 0h48v48H0z"/>
        <path fill="#45B683" d="M23.961 1C11.281 1 1 11.28 1 23.962c0 12.68 10.28 22.96 22.961 22.96 12.68 0 22.961-10.28 22.961-22.96C46.922 11.279 36.642 1 23.962 1z"/>
        <path fill="#FFFDEB" d="M39.591 31.898l-3.11-4.02c-.657-.848-2.076-.466-2.212.601l-.259 2.032c-1.58.053-2.012-.874-2.122-1.482V14.252c0-1.973-1.803-3.351-4.385-3.351-1.391 0-2.732.4-3.774 1.13-.023.015-.044.033-.067.05-2.387-1.288-4.434-1.516-6.088-.678a4.487 4.487 0 0 0-.914.615c-2.32-1.222-4.299-1.416-5.891-.575-2.41 1.275-2.671 4.28-2.693 4.618-.06.92.635 1.71 1.555 1.776a1.691 1.691 0 0 0 1.795-1.548c.038-.478.313-1.566.918-1.88.488-.253 1.346-.102 2.417.411v14.334a1.679 1.679 0 1 0 3.358 0V16.118c.054-.352.322-1.39.972-1.72.53-.268 1.438-.113 2.554.423v14.333a1.679 1.679 0 1 0 3.359 0V16.022v-.007c0-.274 0-1.004 1.09-1.475.987-.427 2.063-.288 2.436-.094v14.708c0 .064.004.128.01.191.213 1.846 1.731 4.38 5.043 4.52l-.206 1.613a1.07 1.07 0 0 0-.024.228c-.033.533.243.914.621 1.114.367.24.843.297 1.298-.006a1.06 1.06 0 0 0 .204-.15l3.901-3.02c.54-.417.626-1.212.214-1.746z"/>
    </g>
</svg>
