<svg xmlns="http://www.w3.org/2000/svg" width="48" height="48" viewBox="0 0 48 48">
    <g fill="none" fill-rule="nonzero">
        <path fill="#FFF" fill-opacity="0" d="M0 0h48v48H0z"/>
        <path fill="#16BAC5" d="M23.961 1C11.281 1 1 11.28 1 23.962c0 12.68 10.28 22.96 22.961 22.96s22.961-10.28 22.961-22.96C46.922 11.279 36.642 1 23.962 1z"/>
        <path fill="#FFFDEB" d="M32.191 15.596a5.27 5.27 0 0 1 3.412 4.925 5.267 5.267 0 0 1-5.261 5.262 5.267 5.267 0 0 1-5.262-5.262c0-1.3.475-2.49 1.259-3.409-7.1-1.33-10.788 3.677-10.97 3.93a1.684 1.684 0 0 1-2.337.4 1.675 1.675 0 0 1-.41-2.33c.069-.098 6.973-9.693 19.57-3.516zm-1.85 6.829c1.05 0 1.904-.854 1.904-1.903 0-.795-.49-1.477-1.183-1.762a1.673 1.673 0 0 1-.132-.048 1.906 1.906 0 0 0-2.491 1.81c0 1.049.853 1.903 1.903 1.903zm4.55 4.055c.754.533.939 1.572.41 2.33-.053.073-4.02 5.588-11.406 5.588-2.373 0-5.1-.57-8.163-2.073A5.27 5.27 0 0 1 12.32 27.4a5.268 5.268 0 0 1 5.262-5.262 5.268 5.268 0 0 1 5.261 5.262c0 1.3-.474 2.49-1.258 3.409 7.099 1.33 10.787-3.677 10.969-3.93a1.683 1.683 0 0 1 2.338-.4zm-17.31 2.823c1.05 0 1.903-.854 1.903-1.904 0-1.049-.854-1.903-1.903-1.903-1.05 0-1.904.854-1.904 1.903 0 .796.49 1.478 1.185 1.762.044.014.087.03.13.048.186.06.383.094.589.094z"/>
    </g>
</svg>
