<svg xmlns="http://www.w3.org/2000/svg" width="48" height="48" viewBox="0 0 48 48">
    <g fill="none" fill-rule="nonzero">
        <path fill="#FFF" fill-opacity="0" d="M0 0h48v48H0z"/>
        <path fill="#FF715B" d="M23.961 1C11.281 1 1 11.28 1 23.962c0 12.68 10.28 22.96 22.961 22.96s22.961-10.28 22.961-22.96C46.922 11.279 36.642 1 23.962 1z"/>
        <path fill="#FFFDEB" d="M38.078 19.085c-.105-1.91-.987-3.589-2.623-4.99-.995-.854-4.083-2.317-7.273-1.4-1.293.373-2.895 1.238-4.22 3.193-1.327-1.955-2.929-2.82-4.222-3.193-3.19-.918-6.278.547-7.273 1.4-1.635 1.402-2.518 3.08-2.623 4.99-.197 3.572 2.54 6.542 2.657 6.667a1.68 1.68 0 0 0 2.453-2.294c-.019-.02-1.874-2.066-1.757-4.189.054-.972.53-1.83 1.455-2.625.356-.304 2.297-1.258 4.158-.721 1.532.44 2.693 1.83 3.454 4.132l.018 9.301-.009 4.48a1.679 1.679 0 0 0 1.676 1.683H23.974a1.679 1.679 0 0 0 1.675-1.682l-.009-4.484.019-9.298c.76-2.301 1.922-3.691 3.453-4.132 1.86-.536 3.803.417 4.158.721.922.79 1.398 1.645 1.455 2.612.125 2.124-1.73 4.172-1.76 4.206a1.68 1.68 0 0 0 2.456 2.29c.117-.125 2.854-3.095 2.657-6.667z"/>
    </g>
</svg>
