<svg xmlns="http://www.w3.org/2000/svg" width="48" height="48" viewBox="0 0 48 48">
    <g fill="none" fill-rule="nonzero">
        <path fill="#FFF" fill-opacity="0" d="M0 0h48v48H0z"/>
        <path fill="#4B48AF" d="M23.961 1C11.281 1 1 11.28 1 23.962c0 12.68 10.28 22.96 22.961 22.96s22.961-10.28 22.961-22.96C46.922 11.279 36.642 1 23.962 1z"/>
        <path fill="#FFFDEB" d="M34.704 30.692a1.681 1.681 0 0 0-1.76-1.595 1.68 1.68 0 0 0-1.595 1.76c.023.465-.096 1.549-.476 1.948-.05.052-.118.124-.365.124-.987 0-1.661-.203-2.005-.605-.395-.464-.506-1.398-.31-2.63.22-1.39.832-2.232 1.679-3.398.385-.53.82-1.13 1.236-1.822 1.38-2.3 2.118-3.8 1.206-7.839-.06-.264-.65-2.617-2.964-4.022-1.75-1.063-3.934-1.26-6.49-.59-3.775.993-4.648 5.505-4.534 9.087a5.548 5.548 0 0 0-5.113 5.523 5.548 5.548 0 0 0 5.541 5.54 5.547 5.547 0 0 0 5.541-5.54 5.54 5.54 0 0 0-2.542-4.656c-.166-2.036-.118-6.159 1.961-6.705 1.622-.427 2.92-.361 3.86.192 1.135.67 1.463 1.912 1.464 1.912.66 2.922.29 3.539-.81 5.37-.339.566-.712 1.08-1.073 1.576-.95 1.308-1.933 2.66-2.28 4.846-.361 2.282 0 4.078 1.075 5.336 1.01 1.183 2.543 1.783 4.558 1.783 1.103 0 2.07-.403 2.798-1.167 1.493-1.569 1.412-4.14 1.398-4.428zm-15.95-1.877a2.185 2.185 0 0 1-2.183-2.182c0-1.204.98-2.183 2.183-2.183 1.204 0 2.183.979 2.183 2.183 0 1.203-.98 2.182-2.183 2.182z"/>
    </g>
</svg>
