<svg xmlns="http://www.w3.org/2000/svg" width="48" height="48" viewBox="0 0 48 48">
    <g fill="none" fill-rule="nonzero">
        <path fill="#FFF" fill-opacity="0" d="M0 0h48v48H0z"/>
        <path fill="#B68418" d="M23.961 1C11.281 1 1 11.28 1 23.962c0 12.68 10.28 22.96 22.961 22.96s22.961-10.28 22.961-22.96C46.922 11.279 36.642 1 23.962 1z"/>
        <path fill="#FFFDEB" d="M35.489 11.651c-.297-.014-2.936-.102-4.547 1.634l-4.857 4.857H21.837l-4.856-4.857c-1.612-1.736-4.249-1.647-4.547-1.634a1.68 1.68 0 0 0 .177 3.354c.353-.019 1.47.082 1.915.572l.055.058 4.177 4.177a9.063 9.063 0 0 0-3.83 7.397c0 5 4.068 9.067 9.068 9.067s9.067-4.068 9.067-9.067a9.063 9.063 0 0 0-3.87-7.426l4.148-4.148.055-.058c.428-.472 1.48-.587 1.925-.572a1.68 1.68 0 0 0 .168-3.354zM29.705 27.21a5.715 5.715 0 0 1-5.709 5.709 5.715 5.715 0 0 1-5.709-5.71 5.715 5.715 0 0 1 5.71-5.708 5.715 5.715 0 0 1 5.708 5.709z"/>
    </g>
</svg>
