<svg xmlns="http://www.w3.org/2000/svg" width="14" height="14" viewBox="0 0 14 14">
    <g fill="#FFF" fill-rule="nonzero">
        <path fill-opacity="0" d="M0 0h14v14H0z"/>
        <path d="M7 11.817c.865 0 1.673-.22 2.423-.663.73-.423 1.308-1 1.73-1.73.443-.75.664-1.559.664-2.424a5.15 5.15 0 0 0-.202-1.356c-.346.096-.793.144-1.341.144-1 0-1.933-.23-2.798-.692A5.888 5.888 0 0 1 5.37 3.25a6.128 6.128 0 0 1-1.269 1.933 5.814 5.814 0 0 1-1.89 1.312c-.019.116-.028.284-.028.505 0 .865.22 1.673.663 2.423.423.73 1 1.308 1.73 1.73.75.443 1.559.664 2.424.664zM7 1a5.9 5.9 0 0 1 3.043.822 5.687 5.687 0 0 1 2.135 2.135A5.9 5.9 0 0 1 13 7a5.9 5.9 0 0 1-.822 3.043 5.687 5.687 0 0 1-2.135 2.135A5.9 5.9 0 0 1 7 13a5.9 5.9 0 0 1-3.043-.822 5.794 5.794 0 0 1-2.135-2.15A5.875 5.875 0 0 1 1 7c0-1.087.274-2.096.822-3.029a5.905 5.905 0 0 1 2.15-2.149A5.875 5.875 0 0 1 7 1zm1.803 5.856c.211 0 .392.07.54.209a.69.69 0 0 1 .224.526.737.737 0 0 1-.223.541.737.737 0 0 1-.541.224.737.737 0 0 1-.541-.224.737.737 0 0 1-.224-.54.69.69 0 0 1 .224-.527c.15-.14.33-.21.54-.21zm-3.606 0c.212 0 .392.07.541.209a.69.69 0 0 1 .224.526.737.737 0 0 1-.224.541.737.737 0 0 1-.54.224.737.737 0 0 1-.542-.224.737.737 0 0 1-.223-.54.69.69 0 0 1 .223-.527c.15-.14.33-.21.541-.21z"/>
    </g>
</svg>
