<svg xmlns="http://www.w3.org/2000/svg" width="24" height="36" viewBox="0 0 24 36">
    <g fill="none" fill-rule="evenodd">
        <path fill="#FFF" fill-opacity="0" fill-rule="nonzero" d="M0 0h24v36H0z"/>
        <path fill="#333436" d="M0 0h24v36l-12-5.707L0 36z"/>
        <path fill="#FFF" fill-rule="nonzero" d="M14.148 15.415c.194 0 .36-.069.498-.206a.68.68 0 0 0 .206-.499.738.738 0 0 0-.206-.515.654.654 0 0 0-.498-.224.665.665 0 0 0-.499.215.729.729 0 0 0-.206.524c0 .207.069.376.206.507a.694.694 0 0 0 .499.198zm-4.296 0c.195 0 .361-.069.499-.206a.68.68 0 0 0 .206-.499.738.738 0 0 0-.206-.515.654.654 0 0 0-.499-.224.665.665 0 0 0-.498.215.729.729 0 0 0-.206.524c0 .207.068.376.206.507a.694.694 0 0 0 .498.198zm5.103-3.318a4.95 4.95 0 0 1 1.495 1.745c.367.705.55 1.464.55 2.278v.74H7v-.74c0-.814.183-1.573.55-2.278a4.95 4.95 0 0 1 1.495-1.745l-1.512-1.513.601-.584 1.65 1.65c.733-.355 1.471-.533 2.216-.533.745 0 1.483.178 2.216.533l1.65-1.65.601.584-1.512 1.513zM7 20.417v-2.853h10v2.854c0 .916-.223 1.759-.67 2.527a5.003 5.003 0 0 1-1.804 1.822 4.834 4.834 0 0 1-2.526.688c-.916 0-1.758-.23-2.526-.688a5.003 5.003 0 0 1-1.804-1.822A4.935 4.935 0 0 1 7 20.418z"/>
    </g>
</svg>
