<svg xmlns="http://www.w3.org/2000/svg" width="24" height="36" viewBox="0 0 24 36">
    <g fill="none" fill-rule="evenodd">
        <path fill="none" d="M0 0h24v36H0z"/>
        <path fill="#16BAC5" d="M0 0h24v36l-12-5.707L0 36z"/>
        <path fill="#FFF" fill-rule="nonzero" d="M20.968 15.72c.021.01.032.035.032.072 0 .037-.01.067-.032.088l-.784.992c-.043.043-.085.064-.128.064l-.464-.096-.224.688a.208.208 0 0 1-.192.112.245.245 0 0 1-.208-.112l-.432-.928-.72-.16-1.472 3.504.528 4.24c0 .085-.043.128-.128.128h-.624c-.032 0-.053-.008-.064-.024l-.048-.072-.64-2.528-.304-.528-.784 3.056c0 .064-.043.096-.128.096h-.656a.122.122 0 0 1-.088-.04.122.122 0 0 1-.04-.088l.72-4.224H9.88l-1.104 2.064.256 2.128c.01.043.005.08-.016.112s-.059.048-.112.048H8.28c-.064 0-.107-.021-.128-.064l-.864-3.184-1.072 1.216.192 1.872c.01.043.005.08-.016.112s-.059.048-.112.048h-.688a.168.168 0 0 1-.088-.024c-.027-.016-.04-.03-.04-.04l-.4-1.744.656-2.56v-4.512l-.192-.096a1.16 1.16 0 0 1-.336-.304.826.826 0 0 1-.192-.528h8.56l.256-.016a3.95 3.95 0 0 0 .688-.096c.32-.075.635-.181.944-.32a5.45 5.45 0 0 0 1.088-.608l-.048-.192a1.283 1.283 0 0 1-.016-.448.86.86 0 0 1 .24-.48l.48.336c.33.235.547.381.648.44.101.059.192.07.272.032a.318.318 0 0 0 .168-.192.42.42 0 0 0 0-.28 1.884 1.884 0 0 0-.304-.56c-.256-.31-.624-.56-1.104-.752.01 0-.048-.016-.176-.048a.545.545 0 0 1-.192-.08c-.043-.032-.059-.08-.048-.144.01-.064.059-.096.144-.096a3 3 0 0 1 1.632.784c.352.32.608.661.768 1.024l.112.112c.075.085.144.165.208.24.085.117.15.235.192.352.043.16.059.32.048.48 0 .107.021.181.064.224l1.344 1.504z"/>
    </g>
</svg>
