<svg xmlns="http://www.w3.org/2000/svg" width="24" height="36" viewBox="0 0 24 36">
    <g fill="none" fill-rule="evenodd">
        <path fill="#FFF" fill-opacity="0" fill-rule="nonzero" d="M0 0h24v36H0z"/>
        <path fill="#FF4D00" d="M0 0h24v36l-12-5.707L0 36z"/>
        <path fill="#FFF" fill-rule="nonzero" d="M8.74 19h6.537a3.564 3.564 0 0 1-1.308 1.577c-.592.401-1.249.602-1.969.602s-1.374-.2-1.96-.602A3.583 3.583 0 0 1 8.74 19zM12 22.608c.755 0 1.47-.157 2.144-.47a4.998 4.998 0 0 0 2.719-3.173l.209.035c.395 0 .738-.145 1.028-.436.29-.29.436-.633.436-1.028s-.145-.738-.436-1.028a1.406 1.406 0 0 0-1.028-.436l-.21.035a4.91 4.91 0 0 0-2.718-3.181A5.098 5.098 0 0 0 12 12.464c-.755 0-1.47.154-2.144.462a4.91 4.91 0 0 0-2.719 3.18l-.209-.034c-.395 0-.738.145-1.028.436-.29.29-.436.633-.436 1.028s.145.738.436 1.028c.29.29.633.436 1.028.436l.21-.035a4.998 4.998 0 0 0 2.719 3.172c.673.314 1.388.47 2.143.47zm7.93-4.601a2.983 2.983 0 0 1-.68 1.455c-.36.424-.801.712-1.324.863a6.35 6.35 0 0 1-1.36 1.865 6.809 6.809 0 0 1-2.039 1.359 6.353 6.353 0 0 1-2.527.523 6.23 6.23 0 0 1-2.51-.523 6.748 6.748 0 0 1-2.022-1.342 6.163 6.163 0 0 1-1.36-1.882 2.835 2.835 0 0 1-1.35-.863 2.76 2.76 0 0 1-.688-1.455 2.048 2.048 0 0 1-.07-.488c0-.14.023-.291.07-.454a2.76 2.76 0 0 1 .688-1.455 2.835 2.835 0 0 1 1.35-.863c.408-.86.93-1.563 1.57-2.109a6.345 6.345 0 0 1 1.978-1.211A6.455 6.455 0 0 1 12 11c.883 0 1.725.168 2.527.505.756.326 1.43.773 2.022 1.342a6.35 6.35 0 0 1 1.342 1.9c.523.151.973.439 1.35.863.378.424.608.91.69 1.455.046.163.069.314.069.454 0 .139-.023.302-.07.488zm-10.649-1.57c0-.255.09-.47.27-.644a.906.906 0 0 1 .654-.261.82.82 0 0 1 .627.261.91.91 0 0 1 .244.645.922.922 0 0 1-.252.654.824.824 0 0 1-.628.27.88.88 0 0 1-.645-.27.89.89 0 0 1-.27-.654zm3.643 0c0-.255.084-.47.252-.644a.848.848 0 0 1 .637-.261c.255 0 .47.087.645.261.174.174.261.39.261.645a.906.906 0 0 1-.261.654.862.862 0 0 1-.645.27.848.848 0 0 1-.637-.262.914.914 0 0 1-.252-.662z"/>
    </g>
</svg>
